#!OML:ASF X:\für Bonn\!DataBase\2005_08_11_Bastian_Final\c3d\Bastian.ASF
:FULLY-SPECIFIED
:DEGREES
94
root -1.74673 10.8361 2.21283 164.814 -2.34993 -171.89
lowerback 31.2831 0.272647 3.55165
upperback 7.48421 -0.444381 1.88619
thorax -8.62133 -1.15069 0.376492
lowerneck -9.43122 -5.85532 -3.37697
upperneck -8.91799 -8.26371 11.1531
head -0.571853 -4.59479 4.00694
rclavicle 5.26779e-015 -1.59028e-015
rhumerus 71.4014 12.5484 13.7249
rradius 38.813
rwrist -67.2357
rhand -49.2528 -8.47347
rfingers 7.12502
rthumb -21.8718 -37.2573
lclavicle 5.26779e-015 -1.59028e-015
lhumerus 73.8826 -17.8741 -49.8591
lradius 31.9257
lwrist 38.5937
lhand -43.7022 22.7398
lfingers 7.12502
lthumb -16.5345 52.0553
rfemur -42.962 -6.70425 33.1995
rtibia 119.98
rfoot -43.5894 -22.8978
rtoes -9.61589
lfemur -43.9099 6.17333 -11.6712
ltibia 124.246
lfoot -43.6459 -9.78482
ltoes -16.2423
95
root -1.7497 11.0367 2.22736 165.093 -2.31633 -171.802
lowerback 31.2109 0.269406 3.51758
upperback 7.40274 -0.430831 1.89342
thorax -8.68126 -1.1329 0.398557
lowerneck -9.42045 -5.81972 -3.23536
upperneck -8.91862 -8.2297 11.0373
head -0.588554 -4.58091 3.94213
rclavicle 2.76311e-014 9.54166e-015
rhumerus 71.4802 12.6288 13.9122
rradius 38.9138
rwrist -67.429
rhand -49.6118 -8.31692
rfingers 7.12502
rthumb -22.2165 -37.0601
lclavicle 2.76311e-014 9.54166e-015
lhumerus 74.0571 -17.8729 -50.1822
lradius 31.9478
lwrist 38.6719
lhand -43.9175 23.0048
lfingers 7.12502
lthumb -16.7417 52.303
rfemur -42.2959 -6.5592 33.0969
rtibia 118.003
rfoot -43.0538 -22.515
rtoes -9.46961
lfemur -43.3718 5.61186 -11.7173
ltibia 122.347
lfoot -43.0875 -9.58483
ltoes -15.9847
96
root -1.75261 11.2403 2.24105 165.357 -2.2942 -171.699
lowerback 31.1213 0.262694 3.50455
upperback 7.33161 -0.417813 1.90914
thorax -8.72062 -1.11643 0.417659
lowerneck -9.4159 -5.7745 -3.06727
upperneck -8.88549 -8.18321 10.8801
head -0.597101 -4.55803 3.8574
rclavicle 1.56046e-014 -2.46493e-014
rhumerus 71.5378 12.6862 14.0976
rradius 39.0287
rwrist -67.6555
rhand -49.9341 -8.22488
rfingers 7.12502
rthumb -22.5258 -36.9309
lclavicle 1.56046e-014 -2.46493e-014
lhumerus 74.195 -17.8419 -50.3626
lradius 31.9644
lwrist 38.7312
lhand -44.1231 23.1963
lfingers 7.12502
lthumb -16.9397 52.4776
rfemur -41.5875 -6.45352 33.0069
rtibia 115.994
rfoot -42.5591 -22.1002
rtoes -9.43257
lfemur -42.7781 5.09593 -11.7211
ltibia 120.392
lfoot -42.525 -9.36179
ltoes -15.6136
97
root -1.75533 11.4465 2.25349 165.618 -2.26464 -171.63
lowerback 30.9996 0.264597 3.44607
upperback 7.2722 -0.411045 1.92597
thorax -8.73184 -1.10237 0.46559
lowerneck -9.37896 -5.71604 -2.89477
upperneck -8.90328 -8.11978 10.7108
head -0.629602 -4.53035 3.77159
rclavicle -9.14409e-015 -7.15625e-015
rhumerus 71.6383 12.7145 14.2402
rradius 39.1124
rwrist -67.8601
rhand -50.1763 -8.14109
rfingers 7.12502
rthumb -22.7583 -36.8187
lclavicle -9.14409e-015 -7.15625e-015
lhumerus 74.2869 -17.806 -50.4035
lradius 31.9317
lwrist 38.7756
lhand -44.2609 23.1159
lfingers 7.12502
lthumb -17.0723 52.3857
rfemur -40.8558 -6.38162 32.8782
rtibia 113.961
rfoot -42.0697 -21.6475
rtoes -9.3167
lfemur -42.132 4.63213 -11.7505
ltibia 118.383
lfoot -41.9632 -9.18487
ltoes -15.2092
98
root -1.75633 11.6554 2.26364 165.877 -2.25562 -171.559
lowerback 30.8515 0.252124 3.39039
upperback 7.20116 -0.418416 1.92524
thorax -8.74403 -1.09255 0.496663
lowerneck -9.28518 -5.65682 -2.70508
upperneck -8.91053 -8.05335 10.5505
head -0.668385 -4.50109 3.68789
rclavicle 7.95139e-016 7.95139e-016
rhumerus 71.733 12.7478 14.3125
rradius 39.1846
rwrist -68.1017
rhand -50.3225 -8.08133
rfingers 7.12502
rthumb -22.8986 -36.7417
lclavicle 7.95139e-016 7.95139e-016
lhumerus 74.3974 -17.7697 -50.4281
lradius 31.9002
lwrist 38.8145
lhand -44.3751 22.966
lfingers 7.12502
lthumb -17.1822 52.2263
rfemur -40.0801 -6.31414 32.7641
rtibia 111.89
rfoot -41.6745 -21.163
rtoes -9.08313
lfemur -41.4308 4.19666 -11.7524
ltibia 116.308
lfoot -41.3876 -8.99103
ltoes -14.8952
99
root -1.75769 11.8681 2.27271 166.156 -2.2611 -171.483
lowerback 30.6579 0.229831 3.3643
upperback 7.13584 -0.430967 1.91253
thorax -8.72754 -1.0847 0.497608
lowerneck -9.19521 -5.62917 -2.61608
upperneck -8.91397 -8.02052 10.5175
head -0.692314 -4.48776 3.66504
rclavicle 6.36111e-015 -8.34896e-015
rhumerus 71.7693 12.7487 14.2926
rradius 39.271
rwrist -68.345
rhand -50.4206 -8.02246
rfingers 7.12502
rthumb -22.9927 -36.6711
lclavicle 6.36111e-015 -8.34896e-015
lhumerus 74.4948 -17.6816 -50.5388
lradius 31.9486
lwrist 38.9266
lhand -44.4529 22.7874
lfingers 7.12502
lthumb -17.2571 52.0412
rfemur -39.298 -6.26672 32.6399
rtibia 109.767
rfoot -41.2739 -20.5984
rtoes -8.70826
lfemur -40.7237 3.78257 -11.7488
ltibia 114.177
lfoot -40.7762 -8.81894
ltoes -14.5375
100
root -1.75771 12.0849 2.27897 166.417 -2.27767 -171.459
lowerback 30.436 0.223852 3.26034
upperback 7.08338 -0.448918 1.90744
thorax -8.68323 -1.07843 0.553156
lowerneck -9.07639 -5.6095 -2.57752
upperneck -8.9284 -7.99112 10.4894
head -0.722056 -4.47483 3.65444
rclavicle -9.74045e-015 -1.03368e-014
rhumerus 71.8283 12.7642 14.0627
rradius 39.2581
rwrist -68.3727
rhand -50.3941 -7.95702
rfingers 7.12502
rthumb -22.9673 -36.6088
lclavicle -9.74045e-015 -1.03368e-014
lhumerus 74.6034 -17.6195 -50.6504
lradius 32.0101
lwrist 39.1171
lhand -44.5253 22.6041
lfingers 7.12502
lthumb -17.3269 51.8517
rfemur -38.4394 -6.23799 32.4645
rtibia 107.601
rfoot -40.8772 -20.0777
rtoes -8.49653
lfemur -39.9021 3.37836 -11.7919
ltibia 111.965
lfoot -40.2261 -8.64178
ltoes -14.1495
101
root -1.75849 12.3029 2.28479 166.699 -2.28729 -171.427
lowerback 30.1742 0.203383 3.16041
upperback 7.03363 -0.48507 1.89413
thorax -8.61646 -1.08002 0.602527
lowerneck -8.96299 -5.57841 -2.51351
upperneck -8.94121 -7.95063 10.4782
head -0.751364 -4.45815 3.64523
rclavicle -9.14409e-015 -1.74931e-014
rhumerus 71.9123 12.8093 13.5792
rradius 39.1798
rwrist -68.176
rhand -50.3142 -7.95487
rfingers 7.12502
rthumb -22.8906 -36.6162
lclavicle -9.14409e-015 -1.74931e-014
lhumerus 74.6947 -17.6032 -50.639
lradius 32.0232
lwrist 39.1779
lhand -44.5359 22.4346
lfingers 7.12502
lthumb -17.337 51.6814
rfemur -37.578 -6.18881 32.3068
rtibia 105.403
rfoot -40.5156 -19.4842
rtoes -8.09615
lfemur -39.0846 3.03963 -11.8114
ltibia 109.714
lfoot -39.6875 -8.48775
ltoes -13.673
102
root -1.75819 12.5195 2.28955 166.978 -2.2991 -171.402
lowerback 29.8945 0.195022 3.05871
upperback 6.98947 -0.506401 1.89218
thorax -8.53376 -1.07495 0.65962
lowerneck -8.8849 -5.56753 -2.53592
upperneck -8.91988 -7.92904 10.5182
head -0.756248 -4.44619 3.66625
rclavicle -4.96962e-015 4.77083e-015
rhumerus 71.9719 12.897 12.9253
rradius 39.0209
rwrist -67.776
rhand -50.1974 -7.89414
rfingers 7.12502
rthumb -22.7786 -36.5693
lclavicle -4.96962e-015 4.77083e-015
lhumerus 74.7763 -17.5872 -50.4107
lradius 32.0026
lwrist 39.0683
lhand -44.5169 22.266
lfingers 7.12502
lthumb -17.3188 51.5144
rfemur -36.6762 -6.11131 32.1535
rtibia 103.177
rfoot -40.15 -18.9084
rtoes -7.68114
lfemur -38.2274 2.72684 -11.8266
ltibia 107.425
lfoot -39.1655 -8.30248
ltoes -13.3181
103
root -1.75792 12.7372 2.29371 167.272 -2.32212 -171.425
lowerback 29.5964 0.1809 2.92858
upperback 6.92791 -0.538693 1.86487
thorax -8.46203 -1.07184 0.708083
lowerneck -8.78007 -5.56846 -2.60597
upperneck -8.89053 -7.9174 10.6108
head -0.757943 -4.43818 3.71459
rclavicle -6.75868e-015 3.97569e-015
rhumerus 72.0271 13.0483 12.0976
rradius 38.8082
rwrist -67.1696
rhand -50.0353 -7.84026
rfingers 7.12502
rthumb -22.623 -36.5345
lclavicle -6.75868e-015 3.97569e-015
lhumerus 74.9031 -17.5938 -50.1654
lradius 31.9363
lwrist 38.8796
lhand -44.5089 22.1597
lfingers 7.12502
lthumb -17.3111 51.4088
rfemur -35.7797 -6.03559 31.9399
rtibia 100.941
rfoot -39.7798 -18.2066
rtoes -6.98101
lfemur -37.3468 2.44416 -11.8869
ltibia 105.082
lfoot -38.6171 -8.19888
ltoes -12.6829
104
root -1.75724 12.9523 2.29685 167.563 -2.35678 -171.439
lowerback 29.2665 0.165062 2.80743
upperback 6.87601 -0.571942 1.84403
thorax -8.363 -1.06975 0.757815
lowerneck -8.67731 -5.57513 -2.71213
upperneck -8.86745 -7.91117 10.7483
head -0.757401 -4.43326 3.78521
rclavicle 1.23246e-014 -9.54166e-015
rhumerus 72.0623 13.2006 11.2112
rradius 38.5712
rwrist -66.438
rhand -49.8405 -7.86752
rfingers 7.12502
rthumb -22.4361 -36.5844
lclavicle 1.23246e-014 -9.54166e-015
lhumerus 75.0019 -17.5904 -49.7408
lradius 31.8233
lwrist 38.5246
lhand -44.5058 22.103
lfingers 7.12502
lthumb -17.3081 51.3523
rfemur -34.8712 -5.92208 31.744
rtibia 98.6915
rfoot -39.45 -17.4859
rtoes -6.28529
lfemur -36.4567 2.19303 -11.9424
ltibia 102.714
lfoot -38.0584 -8.02602
ltoes -12.3089
105
root -1.75595 13.1659 2.29974 167.849 -2.38508 -171.504
lowerback 28.9383 0.152645 2.65329
upperback 6.82765 -0.612661 1.79149
thorax -8.26053 -1.07075 0.793456
lowerneck -8.61106 -5.57369 -2.75563
upperneck -8.80943 -7.90145 10.8446
head -0.74403 -4.42568 3.8277
rclavicle -7.7526e-015 1.66979e-014
rhumerus 72.1019 13.3523 10.296
rradius 38.3144
rwrist -65.671
rhand -49.6092 -7.90591
rfingers 7.12502
rthumb -22.214 -36.6494
lclavicle -7.7526e-015 1.66979e-014
lhumerus 75.0892 -17.5735 -49.2866
lradius 31.686
lwrist 38.1346
lhand -44.5366 22.0845
lfingers 7.12502
lthumb -17.3377 51.3312
rfemur -33.9554 -5.80766 31.5035
rtibia 96.4468
rfoot -39.0554 -16.7676
rtoes -5.46636
lfemur -35.5451 1.97816 -12.0399
ltibia 100.311
lfoot -37.4923 -7.87026
ltoes -11.8997
